<svg width="52" height="52" viewBox="0 0 52 52" fill="none" xmlns="http://www.w3.org/2000/svg">
<path d="M36.0414 36.775C36.0746 36.7726 36.108 36.7726 36.1412 36.775H39.4592C39.5245 36.8461 39.5679 36.9347 39.584 37.03C40.1761 38.8033 40.7715 40.5767 41.3702 42.35L43.2712 48C43.2712 48.085 43.3311 48.165 43.376 48.28C43.4209 48.17 43.4558 48.095 43.4808 48.02L45.5764 41.835L47.208 37C47.2379 36.915 47.2728 36.83 47.3078 36.74H50.7405C50.7554 36.7646 50.7656 36.7917 50.7705 36.82C50.7705 41.43 50.7705 46.04 50.7705 50.65C50.7739 50.6799 50.7739 50.7101 50.7705 50.74C50.7705 50.74 50.7356 50.74 50.7206 50.74H48.4753C48.4753 50.695 48.4753 50.655 48.4753 50.62C48.4753 50.585 48.4753 50.455 48.4753 50.37C48.4753 46.8667 48.4753 43.3667 48.4753 39.87C48.489 39.7604 48.4771 39.6491 48.4404 39.545C48.2757 39.945 48.1659 40.325 48.0362 40.69C47.9065 41.055 47.7818 41.44 47.652 41.815C47.5223 42.19 47.4026 42.55 47.2728 42.915C47.1431 43.28 47.0184 43.66 46.8886 44.035L46.5044 45.16C46.3747 45.535 46.25 45.91 46.1202 46.28C45.9905 46.65 45.8658 47.03 45.7361 47.405C45.6063 47.78 45.4866 48.135 45.3568 48.505C45.2271 48.875 45.1024 49.25 44.9727 49.625C44.8429 50 44.7182 50.375 44.5935 50.74C44.3989 50.78 42.7274 50.795 42.2135 50.74C42.1336 50.685 42.1236 50.585 42.0987 50.505L40.8314 46.9L38.4464 39.9C38.4464 39.825 38.3915 39.75 38.3566 39.67C38.2917 39.67 38.3166 39.745 38.3166 39.775C38.3166 39.805 38.3166 39.94 38.3166 40.025V50.47C38.3166 50.57 38.3166 50.665 38.3166 50.77C38.2833 50.785 38.248 50.7951 38.2119 50.8H36.0464C36.0319 50.7575 36.0202 50.7141 36.0115 50.67C36.0115 50.605 36.0115 50.54 36.0115 50.475V37.095C35.9966 36.9874 36.0068 36.8779 36.0414 36.775Z" fill="black"/>
<path d="M15.0904 43.66C15.1111 44.9046 14.8429 46.137 14.3071 47.26C13.8884 48.1253 13.2846 48.8875 12.5387 49.4924C11.7927 50.0974 10.9229 50.5301 9.99112 50.76C9.11254 50.9896 8.20021 51.0607 7.29678 50.97C6.43092 50.8968 5.58558 50.6664 4.80202 50.29C4.00808 49.9021 3.29999 49.3583 2.71974 48.6909C2.13948 48.0236 1.6989 47.2462 1.42411 46.405C1.1059 45.471 0.962133 44.4862 1 43.5C1.01778 42.6226 1.18658 41.7548 1.49895 40.935C1.88672 39.835 2.56061 38.8588 3.45094 38.1073C4.34128 37.3557 5.41576 36.8561 6.56332 36.66C7.89372 36.3813 9.27511 36.4765 10.5549 36.935C11.5094 37.2639 12.375 37.8097 13.0839 38.5297C13.7928 39.2496 14.3259 40.1242 14.6414 41.085C14.872 41.7391 15.0097 42.4225 15.0505 43.115C15.0705 43.32 15.0854 43.545 15.0904 43.66ZM12.6855 43.61C12.6813 43.2573 12.6446 42.9058 12.5757 42.56C12.4739 41.9394 12.2591 41.3428 11.942 40.8C11.6641 40.3075 11.2897 39.8765 10.8412 39.5328C10.3928 39.189 9.87957 38.9398 9.3325 38.8C8.51461 38.5861 7.65563 38.5861 6.83774 38.8C5.87649 39.0345 5.02848 39.601 4.44277 40.4C4.04509 40.9219 3.75659 41.5188 3.59455 42.155C3.41527 42.8753 3.35959 43.621 3.4299 44.36C3.47853 44.9932 3.63373 45.6137 3.88893 46.195C4.12022 46.7528 4.46645 47.2554 4.90496 47.6698C5.34348 48.0843 5.86438 48.4012 6.43359 48.6C7.11914 48.8441 7.85167 48.9262 8.5741 48.84C9.37753 48.7691 10.1455 48.4758 10.7922 47.9928C11.4389 47.5098 11.9389 46.8562 12.2364 46.105C12.553 45.3123 12.7058 44.4635 12.6855 43.61Z" fill="black"/>
<path d="M51 8.15C51.0215 9.31217 50.7917 10.4652 50.3264 11.53C49.9105 12.4839 49.2734 13.3244 48.4681 13.9819C47.6627 14.6393 46.7124 15.0947 45.6961 15.31C44.3112 15.6512 42.8573 15.5835 41.5099 15.115C40.5309 14.7938 39.6416 14.2448 38.9149 13.5131C38.1881 12.7814 37.6446 11.8876 37.3287 10.905C37.0252 9.99715 36.8883 9.04174 36.9246 8.085C36.935 7.22519 37.0832 6.37266 37.3636 5.56C37.7403 4.43796 38.4101 3.43756 39.3034 2.66287C40.1967 1.88818 41.2808 1.3675 42.443 1.155C43.7724 0.877155 45.1522 0.967032 46.4346 1.415C47.3952 1.73893 48.2673 2.28261 48.9818 3.00294C49.6962 3.72327 50.2335 4.60046 50.5509 5.565C50.7832 6.20854 50.9226 6.88199 50.9651 7.565C50.98 7.8 50.995 8.03 51 8.15ZM48.605 8.27C48.605 8 48.5701 7.725 48.5402 7.455C48.4762 6.79785 48.2901 6.1585 47.9913 5.57C47.7364 5.04148 47.3752 4.57146 46.9305 4.18944C46.4857 3.80741 45.9669 3.52162 45.4067 3.35C44.7029 3.13321 43.9597 3.07683 43.2313 3.185C42.1398 3.31853 41.143 3.87266 40.4522 4.73C39.9475 5.35311 39.6046 6.09176 39.4543 6.88C39.3079 7.55805 39.2709 8.2552 39.3445 8.945C39.4143 9.62964 39.6088 10.2956 39.9183 10.91C40.3883 11.9057 41.2253 12.68 42.2534 13.07C42.9482 13.3337 43.6948 13.4313 44.4338 13.355C45.0921 13.3035 45.7309 13.1072 46.3049 12.78C47.1749 12.2607 47.838 11.4548 48.1809 10.5C48.4558 9.7885 48.5995 9.03292 48.605 8.27Z" fill="black"/>
<path d="M9.26265 9L9.50215 9.11C10.162 9.38794 10.6905 9.90861 10.979 10.565C11.1299 10.8942 11.2421 11.2399 11.3133 11.595C11.5595 12.735 11.8023 13.8717 12.0418 15.005C12.0418 15.095 12.0767 15.18 12.0917 15.285C12.051 15.2972 12.0092 15.3055 11.967 15.31H9.70173C9.70173 15.26 9.65682 15.2 9.64185 15.14C9.44227 14.19 9.24103 13.24 9.03812 12.29C8.98823 12.045 8.91837 11.79 8.85351 11.57C8.83881 11.5148 8.81875 11.4612 8.79363 11.41C8.65357 10.988 8.39592 10.615 8.05111 10.335C7.70629 10.055 7.28872 9.8798 6.84772 9.83C6.57818 9.79262 6.30653 9.77258 6.03443 9.77H3.96378C3.87851 9.75395 3.79032 9.76809 3.7143 9.81C3.68436 10.065 3.7143 10.31 3.7143 10.59V15.295C3.67169 15.3063 3.62834 15.3147 3.58457 15.32H1.44407C1.40754 15.3231 1.37082 15.3231 1.3343 15.32V15.175C1.3318 15.1267 1.3318 15.0783 1.3343 15.03V1.59C1.3343 1.49 1.3343 1.395 1.3343 1.285C1.40409 1.28076 1.47407 1.28076 1.54386 1.285H7.18701C7.84562 1.2778 8.50107 1.37742 9.12793 1.58C9.49558 1.70095 9.84609 1.869 10.1707 2.08C10.8997 2.55144 11.432 3.27325 11.6676 4.11C11.892 4.89249 11.892 5.72251 11.6676 6.505C11.5361 6.98811 11.3047 7.4381 10.9884 7.82573C10.672 8.21337 10.2779 8.52998 9.83146 8.755C9.74663 8.805 9.65682 8.845 9.56701 8.89L9.26265 9ZM3.7143 7.66H7.34168C7.60488 7.64964 7.86454 7.59557 8.11007 7.5C8.41435 7.39143 8.68706 7.20903 8.90386 6.9691C9.12065 6.72917 9.27477 6.43917 9.35246 6.125C9.41733 5.87724 9.43761 5.61988 9.41234 5.365C9.39374 4.97561 9.26199 4.60015 9.03328 4.2848C8.80458 3.96944 8.48889 3.72795 8.12504 3.59C7.83497 3.47143 7.52521 3.40867 7.21196 3.405H3.99371C3.9078 3.38942 3.81921 3.39987 3.73925 3.435C3.70432 3.68 3.68935 5.935 3.73925 7.47C3.69933 7.5 3.70931 7.57 3.7143 7.66Z" fill="black"/>
</svg>
